<svg width="500" height="538" viewBox="0 0 500 538" fill="none" xmlns="http://www.w3.org/2000/svg">
<path d="M250 49.3806C250 43.0953 244.901 37.973 238.622 38.2588C176.457 41.0886 117.419 67.028 73.2233 111.223C26.3392 158.107 5.79649e-06 221.696 0 288C-5.79649e-06 354.304 26.3392 417.893 73.2233 464.777C117.419 508.972 176.457 534.911 238.622 537.741C244.901 538.027 250 532.905 250 526.619C250 520.334 244.901 515.268 238.624 514.954C182.499 512.143 129.244 488.608 89.3179 448.682C46.7024 406.066 22.7613 348.267 22.7613 288C22.7613 227.733 46.7025 169.933 89.318 127.318C129.244 87.3916 182.499 63.8571 238.624 61.046C244.901 60.7315 250 55.666 250 49.3806Z" fill="url(#paint0_linear)"/>
<path d="M236 0L237 30.9279L241.226 0.273907L238.988 31.1368L246.396 1.09262L240.943 31.5525L251.451 2.44717L242.844 32.1702L256.337 4.32273L244.67 32.9833L261 6.69873L246.402 33.9828L265.389 9.54915L248.019 35.1578L269.457 12.8428L249.505 36.4955L273.157 16.5435L250.842 37.981L276.451 20.6107L252.017 39.5983L279.301 25L253.017 41.3296L281.677 29.6632L253.83 43.1558L283.553 34.5491L254.448 45.057L284.907 39.6044L254.863 47.0124L285.726 44.7736L255.072 49.0005L286 50L255.072 50.9995L285.726 55.2264L254.863 52.9876L284.907 60.3956L254.448 54.943L283.553 65.4509L253.83 56.8442L281.677 70.3368L253.017 58.6704L279.301 75L252.017 60.4017L276.451 79.3893L250.842 62.019L273.157 83.4565L249.505 63.5045L269.457 87.1572L248.019 64.8422L265.389 90.4509L246.402 66.0172L261 93.3013L244.67 67.0167L256.337 95.6773L242.844 67.8298L251.451 97.5528L240.943 68.4475L246.396 98.9074L238.988 68.8632L241.226 99.7261L237 69.0721L236 100L235 69.0721L230.774 99.7261L233.012 68.8632L225.604 98.9074L231.057 68.4475L220.549 97.5528L229.156 67.8298L215.663 95.6773L227.33 67.0167L211 93.3013L225.598 66.0172L206.611 90.4509L223.981 64.8422L202.543 87.1572L222.495 63.5045L198.843 83.4565L221.158 62.019L195.549 79.3893L219.983 60.4017L192.699 75L218.983 58.6704L190.323 70.3368L218.17 56.8442L188.447 65.4509L217.552 54.943L187.093 60.3956L217.137 52.9876L186.274 55.2264L216.928 50.9995L186 50L216.928 49.0005L186.274 44.7736L217.137 47.0124L187.093 39.6044L217.552 45.057L188.447 34.5491L218.17 43.1558L190.323 29.6632L218.983 41.3296L192.699 25L219.983 39.5983L195.549 20.6107L221.158 37.981L198.843 16.5435L222.495 36.4955L202.543 12.8428L223.981 35.1578L206.611 9.54915L225.598 33.9828L211 6.69873L227.33 32.9833L215.663 4.32273L229.156 32.1702L220.549 2.44717L231.057 31.5525L225.604 1.09262L233.012 31.1368L230.774 0.273907L235 30.9279L236 0Z" fill="white"/>
<defs>
<linearGradient id="paint0_linear" x1="250" y1="38" x2="250" y2="538" gradientUnits="userSpaceOnUse">
<stop stop-color="#26C5F8"/>
<stop offset="0.838789" stop-color="#26C5F8" stop-opacity="0"/>
</linearGradient>
</defs>
</svg>
