<svg width="160" height="88" viewBox="0 0 160 88" fill="none" xmlns="http://www.w3.org/2000/svg">
<path d="M112.975 56.258C110.77 56.7633 104.967 57.0543 104.967 57.0543L104.232 59.3511C104.232 59.3511 107.126 59.1061 109.239 59.3205C109.239 59.3205 109.928 59.2439 110.005 60.1014C110.019 60.6534 109.998 61.2057 109.944 61.7552C109.944 61.7552 109.898 62.2758 109.163 62.3983C108.366 62.5361 102.915 62.7352 102.915 62.7352L102.027 65.7211C102.027 65.7211 101.705 66.4102 102.44 66.2111C103.129 66.0274 108.841 64.9555 109.591 65.1086C110.388 65.3077 111.276 66.3642 111.015 67.3442C110.709 68.5386 105.013 72.183 101.537 71.9227C101.537 71.9227 99.7148 72.0452 98.1683 69.5798C96.7289 67.237 98.7195 62.7811 98.7195 62.7811C98.7195 62.7811 97.8161 60.6986 98.4745 60.0096C98.4745 60.0096 98.8726 59.6574 100.006 59.5655L101.399 56.6714C101.399 56.6714 99.8067 56.7786 98.8573 55.6149C97.9692 54.4971 97.9079 53.9918 98.5817 53.6855C99.3014 53.3333 105.932 52.1236 110.495 52.2768C110.495 52.2768 112.087 52.1236 113.45 54.8799C113.435 54.8799 114.109 55.9977 112.975 56.258ZM95.8101 67.3749C95.2283 68.753 93.6817 70.223 91.7676 69.3042C89.8536 68.3855 86.8523 62.2146 86.8523 62.2146C86.8523 62.2146 85.7039 59.9177 85.4895 59.9636C85.4895 59.9636 85.2445 59.5196 85.0914 62.0308C84.9383 64.5421 85.122 69.4267 84.1267 70.1923C83.1773 70.958 82.0289 70.6517 81.4317 69.7483C80.8958 68.8602 80.6661 66.747 80.957 63.0414C81.3092 59.3358 82.1667 55.3852 83.2692 54.1449C84.3717 52.9046 85.2598 53.808 85.5967 54.1296C85.5967 54.1296 87.0667 55.4618 89.5014 59.3817L89.9301 60.1014C89.9301 60.1014 92.1351 63.8071 92.3648 63.7917C92.3648 63.7917 92.5486 63.9602 92.7017 63.8377C92.9314 63.7764 92.8395 62.5821 92.8395 62.5821C92.8395 62.5821 92.3801 58.5549 90.3742 51.7255C90.3742 51.7255 90.0679 50.868 90.2823 50.0718C90.4967 49.2755 91.293 49.643 91.293 49.643C91.293 49.643 94.4167 51.2049 95.9173 56.2886C97.4026 61.4183 96.392 65.9967 95.8101 67.3749ZM80.467 54.3133C80.2067 54.8339 80.0536 55.5843 78.7367 55.7833C78.7367 55.7833 66.1346 56.6408 65.5374 57.5289C65.5374 57.5289 65.0933 58.0496 65.7824 58.2027C66.4714 58.3558 69.3196 58.7233 70.6977 58.7999C72.1677 58.8152 77.1289 58.8611 78.9052 61.0814C78.9052 61.0814 79.9617 62.138 79.9158 64.5267C79.8699 66.9767 79.4411 67.8342 78.4917 68.7224C77.4964 69.5492 68.9521 73.3773 63.4396 67.4974C63.4396 67.4974 60.8977 64.6645 64.3124 62.5208C64.3124 62.5208 66.7777 61.0355 73.0405 62.7811C73.0405 62.7811 74.9392 63.4702 74.8474 64.1592C74.7402 64.8942 73.2855 65.6752 71.1724 65.6292C69.1205 65.568 67.6199 64.588 67.9108 64.7411C68.1864 64.8483 65.7058 63.5467 64.9402 64.4349C64.1746 65.2464 64.3583 65.7517 65.1086 66.257C67.0227 67.3442 74.4186 66.9614 76.6236 64.5114C76.6236 64.5114 77.4964 63.5161 76.1642 62.7046C74.832 61.9389 71.0192 61.4796 69.5339 61.403C68.1099 61.3264 62.8118 61.4183 62.0461 60.0096C62.0461 60.0096 61.2805 59.0602 62.1227 56.3652C63.0108 53.5477 69.1817 52.4605 71.8461 52.2155C71.8461 52.2155 79.1808 51.9552 80.5283 53.4558C80.6193 53.7388 80.5974 54.0461 80.467 54.3133ZM59.6421 70.8355C58.7539 71.4939 56.8705 71.203 56.3346 70.468C55.7986 69.8095 55.6149 67.1911 55.7221 63.0874C55.8293 58.9377 55.9211 53.7927 56.8093 52.9811C57.7586 52.1543 58.3405 52.874 58.708 53.4405C59.1061 53.9918 59.5808 54.6043 59.688 55.9058C59.7952 57.2074 60.0861 64.0367 60.0861 64.0367C60.0861 64.0367 60.4843 70.1924 59.6421 70.8355ZM61.5561 48.8161C58.9683 49.6736 57.1921 49.3827 55.6915 48.7396C55.033 49.888 54.6502 50.2402 54.1449 50.3168C53.4099 50.3933 52.7515 49.2143 52.629 48.8315C52.5065 48.5405 52.1543 48.0505 52.583 46.8868C51.113 45.5699 51.0058 43.7937 51.2508 42.5993C51.6183 41.2212 54.099 35.9843 61.648 35.3718C61.648 35.3718 65.3383 35.0962 65.9661 37.0715H66.0733C66.0733 37.0715 69.6564 37.0868 69.5799 40.2718C69.5339 43.4721 65.5986 47.4533 61.5561 48.8161ZM54.5124 41.7265C53.7468 42.9515 53.7161 43.6865 54.0683 44.1918C54.9411 42.8596 56.5336 40.7618 58.8764 39.1693C57.0696 39.3224 55.5536 40.1034 54.5124 41.7265ZM64.9402 39.6746C62.5668 40.0268 58.8918 43.2118 57.1461 45.8149C59.8258 46.3049 64.5574 46.1212 66.6552 41.849C66.6399 41.849 67.6505 39.1999 64.9402 39.6746ZM129.375 64.343C127.951 66.8236 123.954 71.9992 118.626 70.7895C116.865 75.0617 115.395 79.3645 114.553 85.8264C114.553 85.8264 114.369 87.082 113.328 86.6379C112.302 86.2704 110.587 84.5554 110.25 82.182C109.882 79.0583 111.276 73.7755 114.109 67.727C113.282 66.3795 112.715 64.4502 113.205 61.7092C113.205 61.7092 113.925 56.6255 119.024 52.0318C119.024 52.0318 119.636 51.4958 119.989 51.6643C120.387 51.8327 120.203 53.4865 119.881 54.2827C119.56 55.0789 117.278 59.0296 117.278 59.0296C117.278 59.0296 115.854 61.6939 116.252 63.7917C118.932 59.6727 125.026 51.358 128.809 53.9764C130.079 54.8799 130.661 56.8552 130.661 58.9836C130.646 60.8671 130.202 62.8577 129.375 64.343ZM128.273 57.8199C128.273 57.8199 128.058 56.1814 126.466 57.9883C125.088 59.5043 122.607 62.3677 120.601 66.2417C122.699 66.012 124.72 64.8636 125.333 64.2817C126.328 63.3936 128.64 61.0049 128.273 57.8199ZM53.9305 59.9024C53.6396 63.608 52.2155 69.8402 42.1246 72.918C35.4637 74.9239 29.1703 73.9592 25.7403 73.0864C25.6637 74.4492 25.5106 75.0311 25.2962 75.2608C25.0053 75.5517 22.8309 76.8073 21.6365 75.0311C21.1006 74.1889 20.825 72.6577 20.6718 71.2948C12.9543 67.7424 9.40185 62.628 9.26404 62.3983C9.0956 62.2299 7.33467 60.3924 9.0956 58.1414C10.7493 56.1049 16.1547 54.0683 21.024 53.2415C21.1925 49.0765 21.6825 45.9374 22.2643 44.498C22.9687 42.829 23.8568 44.3296 24.6224 45.4627C25.2656 46.3049 25.6484 49.934 25.679 52.828C28.864 52.6749 30.7474 52.9046 34.2999 53.5477C38.9243 54.3899 42.0174 56.748 41.7418 59.4277C41.5427 62.0614 39.1234 63.1486 38.2046 63.2252C37.2399 63.3017 35.7393 62.6127 35.7393 62.6127C34.7134 62.1227 35.6627 61.6939 36.9031 61.158C38.2505 60.4996 37.9443 59.8258 37.9443 59.8258C37.439 58.3558 31.4365 57.3299 25.4646 57.3299C25.434 60.6221 25.6024 66.0886 25.679 69.2736C29.8593 70.0699 32.9831 69.9167 32.9831 69.9167C32.9831 69.9167 48.2343 69.488 48.6937 59.7493C49.153 50.0105 33.4884 40.6393 21.8968 37.6687C10.3206 34.6368 3.76686 36.7499 3.2003 37.0409C2.5878 37.3471 3.15436 37.439 3.15436 37.439C3.73753 37.5454 4.31108 37.699 4.86936 37.8984C6.0178 38.2659 5.12967 38.863 5.12967 38.863C3.15436 39.4909 0.934055 39.0927 0.505306 38.1893C0.0765566 37.2859 0.796243 36.4743 1.62312 35.3106C2.44999 34.0856 3.35343 34.1315 3.35343 34.1315C17.6706 29.1703 35.1115 38.1434 35.1115 38.1434C51.4499 46.4274 54.2368 56.1355 53.9305 59.9024ZM10.7187 59.3971C9.0956 60.1933 10.2134 61.3417 10.2134 61.3417C13.2606 64.6186 17.0121 66.6705 20.58 67.9414C20.9934 62.2911 20.9321 60.3005 20.9781 57.4524C15.4043 57.8352 12.1887 58.7233 10.7187 59.3971Z" fill="white"/>
<path d="M159.694 58.2333V60.2546C159.695 60.3594 159.674 60.4633 159.635 60.5602C159.595 60.6572 159.536 60.7453 159.462 60.8194C159.388 60.8935 159.3 60.9521 159.203 60.9919C159.106 61.0316 159.002 61.0516 158.897 61.0508H149.266C149.266 61.5561 149.281 62.0002 149.281 62.4136C149.295 65.1397 149.157 67.8644 148.868 70.5752C148.849 70.7703 148.759 70.9518 148.615 71.0846C148.471 71.2174 148.283 71.2923 148.087 71.2949H146.004C145.9 71.2949 145.798 71.2732 145.703 71.231C145.608 71.1888 145.523 71.1271 145.453 71.0499C145.382 70.972 145.329 70.8796 145.297 70.7791C145.266 70.6786 145.256 70.5725 145.269 70.468C145.563 67.7933 145.706 65.1043 145.698 62.4136C145.698 61.9849 145.698 61.5408 145.683 61.0508H136.158C136.054 61.0516 135.95 61.0316 135.853 60.9919C135.756 60.9521 135.668 60.8935 135.594 60.8194C135.52 60.7453 135.461 60.6572 135.421 60.5602C135.381 60.4633 135.361 60.3594 135.362 60.2546V58.2333C135.361 58.1285 135.381 58.0246 135.421 57.9276C135.461 57.8307 135.52 57.7426 135.594 57.6685C135.668 57.5944 135.756 57.5357 135.853 57.496C135.95 57.4563 136.054 57.4363 136.158 57.4371H145.545C145.355 54.1865 144.941 50.9529 144.305 47.7596C144.288 47.6632 144.292 47.5644 144.316 47.4695C144.339 47.3745 144.383 47.2856 144.442 47.2083C144.503 47.1321 144.58 47.0705 144.667 47.0281C144.755 46.9857 144.851 46.9635 144.948 46.9633H147.199C147.369 46.9642 147.534 47.0241 147.666 47.1331C147.797 47.242 147.886 47.3931 147.918 47.5605C148.537 50.8231 148.947 54.1221 149.143 57.4371H158.897C159.108 57.4406 159.308 57.5256 159.457 57.6742C159.605 57.8228 159.69 58.0232 159.694 58.2333Z" fill="white"/>
<path d="M146.586 42.2012C141.985 30.8845 134.386 21.0359 124.607 13.7142C114.828 6.39256 103.238 1.87478 91.0834 0.646577C78.9289 -0.581627 66.6696 1.5262 55.6233 6.74344C44.577 11.9607 35.1616 20.09 28.3893 30.2575C28.3221 30.3575 28.2788 30.4717 28.2629 30.5912C28.2469 30.7108 28.2588 30.8323 28.2975 30.9465C28.3335 31.0617 28.3969 31.1664 28.4822 31.2517C28.5676 31.3371 28.6723 31.4005 28.7875 31.4365L30.5331 32.0337C30.6326 32.0628 30.7356 32.0783 30.8393 32.0796C30.9989 32.0774 31.1556 32.0374 31.2967 31.9629C31.4378 31.8883 31.5592 31.7814 31.6509 31.6509C37.484 23.055 45.333 16.0182 54.5124 11.1549C63.6918 6.29157 73.9224 3.7498 84.3105 3.75156C96.8262 3.75371 109.064 7.44205 119.497 14.3562C129.929 21.2704 138.094 31.1041 142.973 42.6299C143.042 42.7967 143.159 42.9393 143.308 43.0401C143.458 43.1408 143.634 43.1952 143.815 43.1965H145.897C146.016 43.1978 146.133 43.1689 146.237 43.1127C146.342 43.0565 146.43 42.9747 146.494 42.8749C146.568 42.781 146.616 42.669 146.632 42.5506C146.648 42.4321 146.632 42.3115 146.586 42.2012ZM30.8393 31.559C30.7921 31.5562 30.7456 31.5458 30.7015 31.5284C30.7456 31.5458 30.7921 31.5562 30.8393 31.559ZM143.386 42.9209C143.428 42.9521 143.475 42.9779 143.524 42.9974C143.478 42.9668 143.432 42.9515 143.386 42.9209Z" fill="url(#paint0_radial)"/>
<defs>
<radialGradient id="paint0_radial" cx="0" cy="0" r="1" gradientUnits="userSpaceOnUse" gradientTransform="translate(144.629 43.1199) scale(116.393)">
<stop offset="0.01" stop-color="white"/>
<stop offset="0.03" stop-color="#CBFFFF"/>
<stop offset="0.06" stop-color="#96FFFF"/>
<stop offset="0.08" stop-color="#68FFFF"/>
<stop offset="0.11" stop-color="#43FFFF"/>
<stop offset="0.14" stop-color="#25FFFF"/>
<stop offset="0.16" stop-color="#11FFFF"/>
<stop offset="0.19" stop-color="#04FFFF"/>
<stop offset="0.22" stop-color="#00FFFF"/>
<stop offset="1" stop-color="#0000FF" stop-opacity="0"/>
</radialGradient>
</defs>
</svg>
